<svg xmlns="http://www.w3.org/2000/svg" xmlns:xlink="http://www.w3.org/1999/xlink" version="1.1" x="0px" y="0px" viewBox="0 0 96 120" enable-background="new 0 0 96 96" xml:space="preserve"><path d="M34,39h28v4H34V39z"/><path d="M84,67H12c-1.104,0-2,0.9-2,2v24c0,1.1,0.896,2,2,2h10V79c0-1.1,0.896-2,2-2s2,0.9,2,2v16h44V79c0-1.1,0.9-2,2-2s2,0.9,2,2  v16h10c1.1,0,2-0.9,2-2V69C86,67.9,85.1,67,84,67z"/><path d="M38,59h20v4H38V59z"/><path d="M24,55h48c1.1,0,2-0.9,2-2V17c0-1.1-0.9-2-2-2H50V3c0-1.1-0.896-2-2-2c-1.104,0-2,0.9-2,2v12H24c-1.104,0-2,0.9-2,2v36  C22,54.1,22.896,55,24,55z M58,23c2.208,0,4,1.788,4,4s-1.792,4-4,4s-4-1.788-4-4S55.792,23,58,23z M38,23c2.208,0,4,1.788,4,4  s-1.792,4-4,4s-4-1.788-4-4S35.792,23,38,23z M30,37c0-1.1,0.896-2,2-2h32c1.1,0,2,0.9,2,2v8c0,1.1-0.9,2-2,2H32c-1.104,0-2-0.9-2-2  V37z"/><text x="0" y="111" fill="#000000" font-size="5px" font-weight="bold" font-family="'Helvetica Neue', Helvetica, Arial-Unicode, Arial, Sans-serif">Created by iconsmind.com</text><text x="0" y="116" fill="#000000" font-size="5px" font-weight="bold" font-family="'Helvetica Neue', Helvetica, Arial-Unicode, Arial, Sans-serif">from the Noun Project</text></svg>